<?xml version="1.0" encoding="utf-8"?>
<!-- Generator: Adobe Illustrator 22.0.1, SVG Export Plug-In . SVG Version: 6.00 Build 0)  -->
<svg version="1.1" id="Calque_1" xmlns="http://www.w3.org/2000/svg" xmlns:xlink="http://www.w3.org/1999/xlink" x="0px" y="0px"
	 viewBox="0 0 973.8 285.8" style="enable-background:new 0 0 973.8 285.8;" xml:space="preserve">
<style type="text/css">
	.st0{clip-path:url(#SVGID_2_);fill:#1A3352;}
	.st1{clip-path:url(#SVGID_2_);fill:#FFFFFF;}
	.st2{clip-path:url(#SVGID_2_);fill:#EE8D07;}
	.st3{clip-path:url(#SVGID_2_);fill:none;stroke:#1D1D1B;stroke-miterlimit:10;}
	.st4{clip-path:url(#SVGID_2_);fill:#FFDD4B;}
	.st5{fill:#1D1D1B;}
	.st6{font-family:'Montserrat-Medium';}
	.st7{font-size:92.464px;}
	.st8{font-size:100.0881px;}
	.st9{clip-path:url(#SVGID_4_);fill:#1A3352;}
	.st10{clip-path:url(#SVGID_4_);fill:#FFFFFF;}
	.st11{clip-path:url(#SVGID_4_);fill:#EE8D07;}
	.st12{clip-path:url(#SVGID_4_);fill:none;stroke:#1D1D1B;stroke-miterlimit:10;}
	.st13{clip-path:url(#SVGID_4_);fill:#FFDD4B;}
	.st14{clip-path:url(#SVGID_6_);fill:#1A3352;}
	.st15{clip-path:url(#SVGID_6_);fill:#FFFFFF;}
	.st16{clip-path:url(#SVGID_6_);fill:#EE8D07;}
	.st17{clip-path:url(#SVGID_6_);fill:none;stroke:#1D1D1B;stroke-miterlimit:10;}
	.st18{clip-path:url(#SVGID_6_);fill:#FFDD4B;}
	.st19{clip-path:url(#SVGID_8_);fill:#233A71;}
	.st20{clip-path:url(#SVGID_8_);fill:#FFFFFF;}
	.st21{clip-path:url(#SVGID_8_);fill:#EF7F25;}
	.st22{clip-path:url(#SVGID_8_);fill:#1A3352;}
	.st23{clip-path:url(#SVGID_8_);fill:none;stroke:#1D1D1B;stroke-miterlimit:10;}
	.st24{clip-path:url(#SVGID_8_);fill:#FDC71A;}
	.st25{clip-path:url(#SVGID_10_);fill:#00EFBA;}
	.st26{clip-path:url(#SVGID_10_);fill:#F0F5FC;}
	.st27{clip-path:url(#SVGID_10_);fill:#391CF1;}
	.st28{clip-path:url(#SVGID_10_);fill:none;stroke:#1D1D1B;stroke-miterlimit:10;}
	.st29{clip-path:url(#SVGID_10_);fill:#FFFC00;}
	.st30{fill:#233A71;}
	.st31{fill:#EFF4FB;}
	.st32{fill:#E3C4C0;}
	.st33{fill:#E63451;}
	.st34{fill:#EF7F25;}
	.st35{fill:#F6AE74;}
	.st36{fill:#FDC71A;}
	.st37{fill:#FFDD71;}
	.st38{fill:#3DAE73;}
	.st39{fill:#72BF9C;}
</style>
<g>
	<g>
		<defs>
			<circle id="SVGID_1_" cx="142.9" cy="142.9" r="142.9"/>
		</defs>
		<clipPath id="SVGID_2_">
			<use xlink:href="#SVGID_1_"  style="overflow:visible;"/>
		</clipPath>
		<circle class="st0" cx="142.9" cy="142.9" r="142.9"/>
		<path class="st1" d="M265.1,20.7C192.3-52.1,137.7-4,102.1,31.6c-35.6,35.6-32.3,71.8-32.8,87.8s1.7,28.2-9.5,65.9
			C48.7,223-8.7,280.7-8.7,280.7l6.9,6.9l6.9,6.9c0,0,57.6-57.4,95.4-68.6c37.7-11.1,49.9-9,65.9-9.5c16-0.5,52.2,2.8,87.8-32.8
			C289.7,148.1,337.9,93.5,265.1,20.7z"/>
		<path class="st2" d="M306.8-21c-36.9-36.9-139.6,5.9-195.6,61.8c-36.9,36.9-36.9,96.8,0,133.7c36.9,36.9,96.8,36.9,133.7,0
			C300.9,118.7,343.7,15.9,306.8-21z"/>
		<path class="st0" d="M54.8,230.2c-1-3.5,2.8-11.5,3.7-14.2c1-3,17.6-41.7,19.3-45.9c1.7-4.2,3.3-6.5,8.2-1.6
			c4.2,4.2,13,12.9,15.4,15.3l0,0c0,0,0.1,0.1,0.3,0.3c0.2,0.2,0.3,0.3,0.3,0.3l0,0c2.4,2.4,11.1,11.2,15.3,15.4
			c4.9,4.9,2.6,6.4-1.6,8.2c-4.2,1.7-43,18.3-45.9,19.3c-2.7,0.9-10.7,4.7-14.2,3.7l-0.6-0.2L54.8,230.2z"/>
		<circle class="st4" cx="95.4" cy="56.9" r="29.2"/>
	</g>
	<g>
		<text transform="matrix(1.0173 0 0 1 321.5961 117.4146)" class="st5 st6 st7">Tennis Club</text>
		<text transform="matrix(1.0173 0 0 1 310.9018 219.3325)" class="st5 st6 st8">De Bouliac</text>
	</g>
</g>
</svg>
